<?xml version="1.0" standalone="no"?>
<!DOCTYPE svg PUBLIC "-//W3C//DTD SVG 20010904//EN"
 "http://www.w3.org/TR/2001/REC-SVG-20010904/DTD/svg10.dtd">
<svg version="1.0" xmlns="http://www.w3.org/2000/svg"
 width="1024.000000pt" height="1024.000000pt" viewBox="0 0 1024.000000 1024.000000"
 preserveAspectRatio="xMidYMid meet">

<g transform="translate(0.000000,1024.000000) scale(0.100000,-0.100000)"
fill="#000000" stroke="none">
<path d="M4875 9079 c-170 -7 -353 -28 -475 -54 -36 -8 -102 -21 -146 -29
-155 -30 -511 -135 -669 -198 -120 -48 -381 -177 -514 -255 -364 -213 -766
-552 -1005 -847 -54 -67 -192 -252 -248 -332 -131 -186 -328 -550 -312 -576 4
-6 3 -8 -3 -5 -11 7 -22 -13 -59 -106 -13 -32 -21 -66 -18 -75 5 -13 4 -14 -4
-4 -7 10 -18 -10 -41 -74 -18 -48 -29 -94 -27 -101 3 -8 2 -12 -3 -9 -4 3 -18
-31 -31 -77 -12 -45 -26 -92 -31 -105 -10 -26 -12 -59 -3 -49 3 3 12 23 19 44
8 21 14 30 15 20 0 -27 -27 -87 -41 -87 -6 0 -8 -7 -5 -16 3 -8 2 -12 -4 -9
-6 3 -10 3 -10 -2 0 -4 -6 -39 -14 -76 -16 -76 -13 -97 15 -97 15 0 19 -7 19
-40 0 -34 -3 -40 -21 -40 -16 0 -20 -5 -16 -20 3 -13 0 -20 -9 -20 -16 0 -20
56 -4 62 6 2 6 15 2 33 l-9 30 -6 -35 c-36 -200 -46 -265 -51 -325 -4 -60 -4
-64 5 -30 5 22 14 54 19 70 9 28 9 27 4 -7 -5 -35 -3 -38 21 -38 21 0 25 5 25
30 0 44 26 38 34 -7 10 -62 9 -63 -33 -63 -29 0 -41 5 -44 18 -4 12 -5 11 -6
-6 0 -12 -8 -39 -17 -60 -9 -20 -17 -53 -18 -72 -1 -33 1 -35 37 -38 48 -4 50
-29 2 -38 -22 -4 -35 -12 -36 -23 -1 -9 -5 -2 -10 14 -14 54 -2 -561 14 -680
27 -197 66 -408 92 -500 14 -49 28 -100 30 -112 21 -96 182 -496 197 -487 5 3
8 0 7 -7 -2 -8 0 -23 4 -35 7 -19 13 -20 57 -16 l50 5 0 -54 c0 -39 -3 -50
-10 -39 -8 12 -10 11 -10 -7 0 -13 -4 -23 -9 -23 -13 0 -20 49 -9 56 6 4 5 10
-3 15 -19 12 -42 11 -34 -1 4 -6 11 -7 17 -4 6 4 8 -1 4 -14 -8 -24 13 -74 27
-65 6 3 7 1 3 -5 -11 -17 16 -62 41 -68 13 -4 23 -10 23 -15 0 -13 -14 -11
-29 4 -7 6 -5 -4 5 -23 13 -26 19 -31 22 -17 3 14 14 17 63 17 l59 0 0 -40 0
-40 40 0 40 0 0 -80 0 -80 40 0 c33 0 40 -3 40 -20 0 -17 7 -20 40 -20 l40 0
0 -60 c0 -47 3 -60 15 -60 8 0 15 -9 15 -20 0 -11 -4 -20 -10 -20 -5 0 -10 -9
-10 -20 0 -16 7 -20 35 -20 34 0 35 -1 35 -40 l0 -40 160 0 160 0 0 -40 0 -40
40 0 40 0 0 -140 0 -140 140 0 c133 0 140 -1 140 -20 0 -13 7 -20 20 -20 17 0
20 -7 20 -40 l0 -40 40 0 40 0 0 -40 c0 -33 -3 -40 -20 -40 -13 0 -20 -7 -20
-20 0 -13 7 -20 20 -20 13 0 20 -7 20 -20 0 -18 7 -20 60 -20 53 0 60 -2 60
-20 0 -13 7 -20 20 -20 13 0 20 -7 20 -20 0 -19 7 -20 100 -20 93 0 100 1 100
20 0 18 7 20 80 20 l80 0 0 -40 c0 -33 3 -40 20 -40 18 0 20 -7 20 -60 0 -53
2 -60 20 -60 13 0 20 -7 20 -20 0 -13 7 -20 20 -20 13 0 20 -7 20 -20 0 -17 7
-20 40 -20 33 0 40 -3 40 -20 0 -13 7 -20 20 -20 13 0 20 -7 20 -20 0 -13 7
-20 20 -20 13 0 20 -7 20 -20 0 -17 7 -20 40 -20 l40 0 0 -40 0 -40 40 0 c33
0 40 -3 40 -20 0 -19 7 -20 140 -20 133 0 140 -1 140 -20 0 -19 7 -20 100 -20
91 0 100 -2 100 -19 0 -22 49 -36 65 -19 7 8 5 9 -6 5 -12 -4 -18 1 -22 19 -2
13 -1 24 3 24 9 0 62 -56 62 -67 0 -4 4 -7 8 -6 12 3 125 -118 144 -155 l17
-32 -28 -1 c-62 -3 123 -29 282 -40 279 -19 670 3 1003 56 388 63 945 270
1293 481 176 106 374 242 491 336 487 391 848 860 1125 1461 124 269 213 545
272 842 59 295 65 369 66 755 0 377 -6 459 -52 695 -25 129 -41 184 -28 93 l7
-48 -35 0 c-32 0 -49 13 -182 146 -171 172 -172 174 -34 174 53 0 89 4 89 10
0 6 9 10 20 10 11 0 20 5 20 11 0 6 6 9 14 6 7 -3 18 -1 23 4 11 11 5 61 -6
55 -3 -2 -7 13 -8 35 -1 21 -22 89 -46 151 -25 62 -48 123 -51 136 -4 12 -10
20 -14 18 -4 -2 -8 6 -8 19 -3 39 -172 377 -185 369 -8 -4 -9 -3 -5 4 12 20
-93 209 -109 195 -4 -4 -5 -3 -2 3 10 18 -152 265 -271 412 -26 33 -37 40 -43
30 -7 -10 -9 -10 -9 0 0 7 -5 10 -12 6 -7 -4 -8 -3 -4 5 4 6 12 9 17 6 5 -4 9
-2 9 3 0 6 -52 63 -116 128 -63 66 -112 112 -108 104 4 -8 16 -21 26 -28 10
-7 16 -17 13 -22 -3 -5 3 -11 14 -15 38 -12 38 -105 0 -105 -10 0 -19 7 -19
15 0 11 -11 15 -40 15 l-40 0 0 80 c0 64 3 80 15 80 9 0 12 6 8 15 -3 9 -7 14
-9 12 -2 -2 -48 39 -101 91 -142 136 -429 362 -460 362 -4 0 -1 -5 7 -11 13
-9 13 -10 0 -6 -8 2 -14 9 -13 15 2 9 -90 75 -188 134 -23 15 -26 15 -36 0 -6
-10 -14 -14 -18 -10 -4 4 -2 14 4 22 10 12 8 17 -9 26 -11 6 -26 8 -33 4 -6
-4 -9 -4 -5 1 23 25 -468 253 -516 239 -15 -4 -17 -3 -8 4 11 7 8 11 -13 16
-14 4 -31 4 -37 0 -6 -4 -8 -3 -5 3 8 12 -182 76 -230 77 -17 1 -29 4 -27 8 4
6 -92 34 -113 32 -7 -1 -13 2 -13 6 0 4 -17 11 -37 14 -21 4 -87 18 -148 31
-135 30 -346 58 -397 53 -21 -2 -39 0 -40 3 -4 9 -288 29 -381 27 -39 0 -148
-4 -242 -9z m930 -69 c-3 -5 3 -10 14 -10 14 0 21 -6 21 -20 0 -18 7 -20 60
-20 53 0 60 -2 60 -20 0 -19 -7 -20 -100 -20 l-100 0 0 44 c0 38 -3 45 -22 49
-13 2 -1 5 25 6 30 0 46 -3 42 -9z m205 -34 c0 -2 -7 -6 -15 -10 -8 -3 -15 -1
-15 4 0 6 7 10 15 10 8 0 15 -2 15 -4z m139 -82 c6 -15 10 -29 7 -31 -8 -8
-36 24 -36 41 0 25 15 19 29 -10z m178 0 c-3 -3 -12 -4 -19 -1 -8 3 -5 6 6 6
11 1 17 -2 13 -5z m103 -63 c0 -5 -7 -11 -15 -15 -9 -3 -15 0 -15 9 0 8 7 15
15 15 8 0 15 -4 15 -9z m170 -101 c0 -5 8 -9 18 -8 9 1 36 0 60 0 35 -2 42 -5
42 -22 0 -16 7 -20 34 -20 26 0 36 -5 41 -20 3 -11 15 -20 26 -20 12 0 19 -7
19 -20 0 -17 -7 -20 -40 -20 -33 0 -40 -3 -40 -20 0 -18 -7 -20 -60 -20 l-60
0 0 40 0 40 -40 0 -40 0 0 50 c0 43 3 50 20 50 11 0 20 -4 20 -10z m160 0 c0
-5 -2 -10 -4 -10 -3 0 -8 5 -11 10 -3 6 -1 10 4 10 6 0 11 -4 11 -10z m-2040
-170 l0 -40 40 0 c33 0 40 -3 40 -20 0 -18 7 -20 80 -20 73 0 80 -2 80 -20 0
-13 7 -20 20 -20 13 0 20 -7 20 -20 0 -13 7 -20 19 -20 15 0 21 -8 23 -32 l3
-33 100 -8 c55 -4 123 -9 150 -10 28 -1 42 -3 31 -5 -14 -3 -9 -8 21 -22 22
-9 56 -32 76 -50 21 -18 34 -25 31 -16 -3 9 -11 16 -16 16 -6 0 -8 6 -5 13 3
8 1 20 -5 28 -8 11 -9 10 -4 -3 6 -21 -4 -23 -29 -5 -24 19 -10 40 21 33 14
-4 24 -2 24 4 0 6 32 10 80 10 73 0 80 -2 80 -20 0 -13 7 -20 20 -20 13 0 20
-7 20 -20 0 -17 7 -20 40 -20 33 0 40 -3 40 -20 0 -13 7 -20 20 -20 13 0 20
-7 20 -20 0 -11 -7 -20 -15 -20 -8 0 -15 -9 -15 -20 0 -11 7 -20 15 -20 8 0
15 -9 15 -20 0 -11 -7 -20 -15 -20 -8 0 -15 -9 -15 -20 0 -13 -9 -22 -25 -26
-14 -3 -25 -11 -25 -16 0 -15 27 -38 35 -30 5 4 5 2 2 -4 -4 -7 33 -48 85 -95
50 -46 100 -93 110 -104 12 -13 18 -15 16 -6 -3 16 -34 51 -44 51 -14 0 -51
49 -40 53 18 7 52 -8 38 -17 -7 -4 -12 -11 -12 -17 0 -16 25 -10 40 11 12 16
26 20 72 20 51 0 58 -2 58 -20 0 -18 7 -20 79 -20 l80 0 0 80 c0 73 -2 80 -19
80 -18 0 -20 7 -20 80 l0 80 80 0 c73 0 80 2 80 20 0 17 7 20 40 20 33 0 40
-3 40 -20 0 -19 7 -20 260 -20 253 0 260 -1 260 -20 0 -13 7 -20 20 -20 13 0
20 -7 20 -20 0 -13 7 -20 20 -20 17 0 20 -7 20 -40 l0 -40 55 0 c48 0 55 -2
55 -20 0 -11 7 -20 15 -20 8 0 15 -4 15 -10 0 -5 -4 -10 -10 -10 -5 0 -10 -4
-10 -10 0 -6 33 -10 80 -10 73 0 80 -2 80 -20 0 -17 7 -20 40 -20 l40 0 0 -60
0 -60 40 0 40 0 0 -40 0 -40 40 0 40 0 0 -40 0 -40 40 0 40 0 0 -40 0 -40 40
0 c33 0 40 -3 40 -20 0 -13 7 -20 20 -20 13 0 20 -7 20 -20 0 -13 7 -20 20
-20 13 0 20 -7 20 -20 0 -18 7 -20 60 -20 53 0 60 -2 60 -20 0 -17 7 -20 40
-20 33 0 40 -3 40 -20 0 -13 7 -20 20 -20 13 0 20 -7 20 -20 0 -13 7 -20 20
-20 18 0 20 -7 20 -80 0 -73 -2 -80 -20 -80 -13 0 -20 -7 -20 -20 0 -13 -7
-20 -20 -20 -13 0 -20 -7 -20 -20 0 -17 7 -20 40 -20 l40 0 0 -40 c0 -33 3
-40 20 -40 17 0 20 7 20 40 0 33 3 40 20 40 17 0 20 -7 20 -40 0 -33 3 -40 20
-40 17 0 20 -7 20 -40 l0 -40 40 0 40 0 0 -98 c0 -85 -3 -101 -19 -116 -12
-11 -17 -25 -14 -34 4 -10 -6 -6 -25 12 -17 16 -28 34 -25 40 3 6 3 8 -2 4
-11 -11 -36 12 -28 25 3 5 1 7 -5 3 -6 -3 -40 24 -77 61 -36 36 -62 69 -57 72
6 3 4 12 -4 19 -9 8 -14 9 -14 2 0 -8 -6 -8 -20 0 -12 7 -17 16 -13 27 4 11 3
14 -5 9 -7 -4 -12 -2 -12 4 0 6 -4 9 -9 5 -5 -3 -19 9 -32 26 -12 17 -40 48
-62 70 -23 21 -35 39 -29 39 10 0 10 3 0 14 -7 8 -15 10 -18 5 -8 -11 -96 71
-92 85 2 6 0 8 -4 3 -11 -10 -65 44 -57 57 3 6 2 8 -2 3 -11 -9 -345 324 -338
337 3 5 1 6 -5 2 -14 -9 -32 33 -32 75 0 18 -7 33 -20 41 -11 7 -20 20 -21 28
0 8 -7 -12 -14 -45 -10 -42 -14 -143 -14 -342 -1 -229 -4 -284 -15 -296 -16
-15 -99 -9 -184 14 -53 15 -156 80 -172 109 -8 15 -10 78 -8 195 2 95 0 176
-4 180 -6 6 -243 -8 -338 -20 -21 -3 -30 -1 -22 4 10 6 5 12 -17 21 -34 14
-64 0 -55 -25 4 -9 -8 -16 -38 -22 -24 -5 -44 -5 -46 -1 -2 4 -8 8 -14 8 -24
0 315 -334 530 -523 37 -32 79 -70 94 -83 14 -13 31 -24 36 -24 5 0 12 -9 15
-21 3 -12 10 -18 17 -14 6 4 9 1 8 -7 -2 -7 3 -12 10 -10 8 1 11 -1 9 -5 -7
-10 177 -200 373 -385 85 -81 239 -229 341 -330 162 -159 189 -189 203 -232
38 -116 3 -226 -86 -272 -33 -17 -133 -18 -170 -1 -16 7 -247 228 -515 493
-269 265 -554 544 -634 620 -81 76 -326 310 -545 519 -574 548 -711 677 -746
703 -34 24 -95 29 -131 11 -25 -13 -70 -56 -452 -425 -154 -149 -334 -322
-401 -385 -287 -270 -804 -769 -1124 -1083 -393 -385 -455 -439 -523 -457 -91
-23 -162 -1 -211 65 -18 23 -21 42 -21 116 l0 89 -25 -6 c-33 -8 -38 -13 -12
-13 19 0 22 -6 22 -40 0 -29 -4 -40 -15 -40 -8 0 -15 -4 -15 -10 0 -5 7 -10
15 -10 13 0 22 -41 16 -74 -1 -5 3 -12 10 -16 6 -4 8 -13 5 -19 -4 -6 -11 -9
-15 -6 -5 2 -6 -7 -3 -20 3 -16 11 -25 23 -25 13 0 19 -7 19 -21 0 -17 5 -20
34 -18 31 3 43 -4 103 -62 37 -35 111 -101 163 -144 52 -44 105 -89 118 -100
13 -11 50 -52 83 -92 59 -71 59 -72 32 -72 -15 0 -61 -2 -100 -5 -67 -4 -73
-3 -73 15 0 16 -7 19 -40 19 -33 0 -40 3 -40 20 0 18 -7 20 -60 20 -53 0 -60
2 -60 20 0 13 -7 20 -20 20 -17 0 -20 7 -20 40 0 33 -3 40 -20 40 -13 0 -20 7
-20 20 0 13 -7 20 -20 20 -19 0 -20 7 -20 100 l0 100 -80 0 c-73 0 -80 2 -80
20 0 18 -7 20 -80 20 l-80 0 0 80 0 80 40 0 40 0 0 120 0 120 -120 0 c-113 0
-120 1 -120 20 0 13 -7 20 -20 20 -19 0 -20 7 -20 100 l0 100 100 0 c93 0 100
-1 100 -20 0 -13 7 -20 20 -20 13 0 20 -7 20 -20 0 -18 7 -20 80 -20 l80 0 0
40 0 40 -40 0 c-33 0 -40 3 -40 20 0 13 -7 20 -20 20 -13 0 -20 7 -20 20 0 17
-7 20 -40 20 -33 0 -40 3 -40 20 0 17 -7 20 -40 20 l-40 0 0 100 0 100 60 0
c53 0 60 2 60 20 0 17 7 20 40 20 33 0 40 -3 40 -20 0 -13 7 -20 20 -20 18 0
20 -7 20 -80 l0 -80 40 0 40 0 0 40 0 40 40 0 40 0 0 -40 0 -40 -40 0 -40 0 0
-40 0 -40 40 0 c33 0 40 -3 40 -20 0 -17 7 -20 40 -20 33 0 40 -3 40 -20 0
-13 7 -20 20 -20 12 0 21 -7 21 -17 6 -72 6 -72 -13 -62 -11 6 -18 6 -18 0 0
-5 8 -12 17 -15 12 -5 36 12 85 61 70 70 79 87 52 97 -8 3 -12 11 -8 17 5 9
11 7 20 -6 14 -19 50 -13 38 6 -4 8 -3 9 5 5 15 -10 162 133 154 149 -4 5 -2
7 2 2 9 -8 65 40 65 55 0 5 -4 7 -9 3 -5 -3 -12 -1 -15 4 -4 5 -2 12 3 15 5 4
12 2 16 -4 3 -5 11 -10 16 -10 6 0 7 4 4 10 -3 6 1 7 9 4 11 -4 16 0 16 10 0
9 5 16 11 16 8 0 7 6 -2 17 -13 15 -12 15 8 5 16 -9 22 -9 26 2 3 7 1 18 -4
23 -7 7 -5 12 5 16 10 4 13 1 9 -9 -3 -7 -1 -14 4 -14 16 0 44 36 36 45 -5 4
-3 5 3 2 12 -7 114 98 114 118 0 8 4 17 10 20 6 3 7 -1 4 -9 -9 -25 2 -19 35
17 30 31 41 55 21 42 -6 -3 -7 1 -4 9 7 18 24 22 24 6 0 -5 7 -7 15 -4 8 4 15
10 15 16 0 5 -5 6 -12 2 -7 -4 -8 -3 -4 5 4 6 11 9 16 6 4 -3 14 3 21 12 10
12 10 14 2 9 -8 -4 -13 -2 -14 6 0 10 -2 10 -6 1 -2 -7 -9 -13 -14 -13 -6 0
-8 4 -4 10 3 5 0 19 -7 31 -10 17 -10 23 0 26 8 3 12 28 12 74 l0 69 -40 0
c-33 0 -40 -3 -40 -20 0 -18 -7 -20 -80 -20 -73 0 -80 2 -80 20 0 17 -7 20
-40 20 l-40 0 0 40 0 40 40 0 40 0 0 40 0 40 140 0 c133 0 140 -1 140 -20 0
-13 7 -20 20 -20 13 0 20 -7 20 -20 0 -17 7 -20 40 -20 33 0 40 3 40 20 0 18
7 20 70 20 63 0 70 2 70 20 0 12 7 20 16 20 23 0 44 25 44 54 0 24 4 26 40 26
33 0 40 3 40 20 0 11 -4 20 -10 20 -5 0 -10 9 -10 20 0 13 7 20 18 20 10 0 24
9 32 20 8 11 22 20 32 20 11 0 18 7 18 20 0 17 7 20 40 20 33 0 40 3 40 20 0
11 -4 20 -10 20 -5 0 -10 9 -10 20 0 13 7 20 19 20 11 0 22 6 25 13 5 10 7 10
12 0 10 -22 44 -15 44 8 0 17 5 20 37 17 30 -2 37 -7 40 -27 2 -14 0 -22 -3
-18 -10 9 -34 -12 -34 -30 0 -8 6 -13 13 -10 6 2 11 11 9 18 -2 8 0 11 4 6 4
-4 16 0 26 9 14 14 16 20 6 33 -10 13 -10 14 2 4 11 -11 19 -8 42 14 29 28 35
43 18 43 -6 0 -15 -10 -20 -22 -5 -13 -9 -17 -9 -10 -1 9 -6 10 -20 2 -25 -13
-31 -13 -31 0 0 6 9 10 20 10 11 0 20 5 20 10 0 6 -4 10 -10 10 -5 0 -10 9
-10 20 0 12 7 20 16 20 34 0 44 26 44 114 l0 86 40 0 c33 0 40 3 40 20 0 13 7
20 20 20 17 0 20 7 20 40 0 33 3 40 20 40 17 0 20 7 20 40 l0 40 40 0 c33 0
40 3 40 20 0 19 7 20 106 20 78 0 109 4 120 14 10 11 14 42 14 120 0 99 -1
106 -20 106 -18 0 -20 7 -20 80 0 73 -2 80 -20 80 -13 0 -20 7 -20 20 0 13 7
20 20 20 13 0 20 7 20 20 0 17 7 20 40 20 33 0 40 3 40 20 0 17 7 20 40 20
l40 0 0 -40z m2518 -93 c45 -4 -9 -27 -65 -27 -47 0 -53 2 -53 21 0 19 4 21
48 15 26 -4 57 -7 70 -9z m-2158 -117 c0 -5 -8 -10 -17 -10 -15 0 -16 2 -3 10
19 12 20 12 20 0z m2385 -28 c-3 -3 -11 0 -18 7 -9 10 -8 11 6 5 10 -3 15 -9
12 -12z m50 -22 c3 -5 1 -10 -4 -10 -6 0 -11 5 -11 10 0 6 2 10 4 10 3 0 8 -4
11 -10z m35 -64 c0 -7 3 -28 6 -45 6 -27 4 -31 -15 -31 -18 0 -21 6 -21 45 0
33 4 45 15 45 8 0 15 -6 15 -14z m64 -22 c3 -8 2 -12 -4 -9 -6 3 -10 10 -10
16 0 14 7 11 14 -7z m92 -99 c7 -29 1 -40 -16 -30 -6 4 -9 14 -5 23 3 8 0 19
-7 24 -10 6 -8 8 4 8 11 0 20 -10 24 -25z m35 -2 c13 -16 12 -17 -3 -4 -10 7
-18 15 -18 17 0 8 8 3 21 -13z m39 -93 c0 -13 -28 -25 -38 -16 -3 4 0 11 8 16
20 13 30 12 30 0z m100 -36 c0 -2 -9 0 -20 6 -11 6 -20 13 -20 16 0 2 9 0 20
-6 11 -6 20 -13 20 -16z m365 -406 c8 -10 10 -18 5 -18 -6 0 -10 -9 -10 -20 0
-11 -4 -20 -10 -20 -13 0 -13 27 1 35 7 5 4 14 -7 26 -10 11 -19 28 -20 37 -2
14 0 14 12 -3 8 -11 21 -28 29 -37z m75 -95 c0 -2 -4 -1 -10 2 -5 3 -10 0 -11
-7 0 -10 -2 -10 -6 0 -2 6 -10 9 -16 5 -7 -4 -8 0 -4 11 4 10 7 22 7 28 0 6 9
1 20 -12 11 -13 20 -25 20 -27z m-5 -33 c3 -5 1 -10 -4 -10 -6 0 -11 5 -11 10
0 6 2 10 4 10 3 0 8 -4 11 -10z m25 -40 c0 -5 -4 -10 -10 -10 -5 0 -10 5 -10
10 0 6 5 10 10 10 6 0 10 -4 10 -10z m120 -152 c0 -19 -2 -20 -10 -8 -13 19
-13 30 0 30 6 0 10 -10 10 -22z m-6220 -318 c0 -53 2 -60 20 -60 19 0 20 -7
20 -160 0 -153 -1 -160 -20 -160 -13 0 -20 7 -20 20 0 18 -7 20 -60 20 -53 0
-60 2 -60 20 0 13 -7 20 -20 20 -13 0 -20 7 -20 20 0 13 -7 20 -20 20 -18 0
-20 7 -20 80 0 73 2 80 20 80 17 0 20 7 20 40 0 33 3 40 20 40 13 0 20 7 20
20 0 13 7 20 20 20 13 0 20 7 20 20 0 17 7 20 40 20 l40 0 0 -60z m3567 -2
c-3 -8 -6 -5 -6 6 -1 11 2 17 5 13 3 -3 4 -12 1 -19z m-4207 3 c0 -6 -4 -12
-8 -15 -5 -3 -9 1 -9 9 0 8 4 15 9 15 4 0 8 -4 8 -9z m3657 -27 c76 -61 83
-81 83 -225 0 -125 1 -129 23 -133 225 -44 341 -101 472 -231 44 -44 103 -116
130 -160 118 -191 91 -313 -91 -401 -48 -23 -72 -28 -134 -29 -96 0 -124 19
-180 126 -71 137 -170 205 -334 230 -151 24 -294 -13 -387 -98 -72 -67 -94
-119 -87 -201 10 -105 76 -200 166 -238 38 -16 195 -54 382 -93 161 -34 326
-88 424 -139 201 -105 363 -327 397 -543 17 -107 6 -276 -23 -374 -48 -162
-173 -325 -329 -430 -119 -80 -314 -154 -404 -155 l-30 0 0 -147 0 -148 -33
-45 c-38 -54 -71 -75 -128 -85 -86 -14 -178 37 -215 120 -15 32 -19 66 -19
171 l0 130 -76 13 c-182 30 -347 110 -471 225 -87 81 -140 155 -195 272 -69
147 -61 235 29 314 120 105 283 129 372 54 18 -15 51 -68 79 -127 53 -109 97
-160 185 -211 75 -45 147 -59 292 -59 140 0 187 10 268 60 80 48 150 169 150
258 -1 178 -103 267 -373 324 -74 16 -186 38 -248 50 -130 25 -288 78 -382
127 -135 70 -274 230 -319 366 -49 150 -65 328 -40 464 18 99 97 248 177 335
137 148 349 263 517 281 l30 3 -4 121 c-3 133 3 157 56 205 52 49 82 60 160
56 63 -2 76 -6 110 -33z m593 -6 c0 -5 -7 -3 -15 6 -8 8 -15 18 -15 22 0 3 7
1 15 -6 8 -7 15 -17 15 -22z m70 -60 c0 -7 -4 -7 -14 1 -11 9 -15 9 -19 -1 -3
-7 -6 -3 -6 10 -1 20 2 21 19 12 11 -6 20 -16 20 -22z m-2700 -43 c0 -8 -7
-15 -16 -15 -14 0 -14 3 -4 15 7 8 14 15 16 15 2 0 4 -7 4 -15z m2715 5 c3 -5
1 -10 -4 -10 -6 0 -11 5 -11 10 0 6 2 10 4 10 3 0 8 -4 11 -10z m-2715 -60 c0
-5 -4 -10 -10 -10 -5 0 -10 5 -10 10 0 6 5 10 10 10 6 0 10 -4 10 -10z m2876
-67 c-7 -7 -26 7 -26 19 0 6 6 6 15 -2 9 -7 13 -15 11 -17z m-256 -33 c0 -5
25 -10 56 -10 55 0 56 -1 51 -25 -2 -15 0 -24 6 -22 5 1 21 -8 35 -22 21 -21
24 -30 19 -73 -4 -27 -13 -55 -21 -63 -13 -14 -21 -10 -68 32 -29 25 -89 73
-133 106 -44 32 -81 60 -83 62 -1 1 12 2 29 3 18 0 37 6 42 11 14 14 67 14 67
1z m2403 -5 c4 -8 2 -17 -3 -20 -6 -4 -10 -4 -10 -1 0 2 -3 11 -6 20 -3 9 -2
16 4 16 5 0 12 -7 15 -15z m-5483 -25 c0 -13 7 -20 20 -20 13 0 20 -7 20 -20
0 -18 -7 -20 -80 -20 l-80 0 0 40 0 40 60 0 c53 0 60 -2 60 -20z m340 8 c0 -4
-2 -8 -4 -8 -2 0 -11 -2 -19 -5 -7 -3 -14 0 -14 7 0 8 9 14 19 14 10 0 18 -4
18 -8z m5140 -28 c0 -5 6 -7 14 -4 8 3 17 1 21 -5 4 -7 -1 -8 -12 -4 -14 5
-13 1 6 -20 36 -40 21 -33 -19 8 -19 19 -29 35 -22 35 7 0 12 -4 12 -10z m567
-52 c-3 -7 -5 -2 -5 12 0 14 2 19 5 13 2 -7 2 -19 0 -25z m-7377 2 c0 -5 -7
-10 -15 -10 -8 0 -15 5 -15 10 0 6 7 10 15 10 8 0 15 -4 15 -10z m6906 -52
l29 -33 -32 29 c-31 28 -38 36 -30 36 2 0 16 -15 33 -32z m-1907 -116 c7 -7
11 -15 9 -18 -3 -2 -13 5 -23 16 -10 11 -24 20 -32 20 -8 0 -11 5 -7 13 6 10
4 10 -7 0 -7 -7 -17 -13 -21 -13 -13 0 -9 28 5 33 6 3 1 6 -12 6 -13 1 -21 4
-18 8 4 3 -3 18 -15 32 -20 21 79 -58 121 -97z m-3869 58 c0 -33 -3 -40 -20
-40 -17 0 -20 7 -20 40 0 33 3 40 20 40 17 0 20 -7 20 -40z m5832 28 c-10 -13
2 -32 23 -36 6 -1 10 -6 10 -11 0 -5 3 -13 8 -17 7 -7 11 17 8 44 -4 27 30 11
36 -18 5 -27 9 -30 44 -30 l39 0 0 -49 c0 -31 5 -53 15 -61 20 -17 19 -31 -2
-23 -31 10 -202 185 -196 199 3 8 10 14 15 14 7 0 7 -4 0 -12z m-7035 -130
c-3 -8 -6 -5 -6 6 -1 11 2 17 5 13 3 -3 4 -12 1 -19z m5108 13 c3 -5 1 -12 -5
-16 -5 -3 -10 1 -10 9 0 18 6 21 15 7z m2188 -128 c-7 -2 -13 -12 -13 -20 0
-13 -3 -13 -15 -3 -13 11 -13 15 -3 21 7 5 20 8 28 8 10 0 11 -2 3 -6z m-6026
-38 c-4 -8 -11 -15 -17 -15 -7 0 -7 6 0 21 13 23 26 19 17 -6z m-37 -41 c0 -8
-19 -13 -24 -6 -3 5 1 9 9 9 8 0 15 -2 15 -3z m-20 -30 c0 -8 -19 -13 -24 -6
-3 5 1 9 9 9 8 0 15 -2 15 -3z m-1293 -36 c-3 -7 -5 -2 -5 12 0 14 2 19 5 13
2 -7 2 -19 0 -25z m5083 -28 c0 -5 18 -10 40 -10 33 0 40 -3 40 -20 0 -13 7
-20 20 -20 13 0 20 -7 20 -20 0 -13 7 -20 20 -20 11 0 20 -4 20 -10 0 -5 9
-10 20 -10 16 0 20 -7 20 -30 0 -23 4 -30 20 -30 13 0 20 -7 20 -20 0 -13 7
-20 20 -20 13 0 20 -7 20 -20 0 -13 7 -20 19 -20 13 0 20 -9 25 -30 3 -18 12
-30 21 -30 8 0 15 -4 15 -10 0 -5 9 -10 20 -10 18 0 20 -7 20 -59 0 -38 -4
-61 -12 -63 -18 -6 -79 32 -71 45 3 5 1 7 -4 4 -6 -4 -61 39 -123 96 -62 56
-144 131 -184 165 -39 35 -70 68 -68 74 1 5 -1 7 -6 4 -5 -3 -24 11 -43 30
-19 20 -26 32 -16 29 9 -4 17 -11 17 -15 0 -4 7 -10 15 -14 8 -3 14 -2 12 2
-1 4 5 15 13 24 16 19 70 24 70 8z m485 -88 c-3 -3 -11 0 -18 7 -9 10 -8 11 6
5 10 -3 15 -9 12 -12z m214 -180 c36 -37 95 -101 131 -142 l65 -74 6 -95 c4
-53 6 -645 5 -1316 l-1 -1220 -35 -80 c-26 -59 -50 -95 -95 -141 -66 -67 -125
-96 -237 -114 -93 -15 -3499 -14 -3570 1 -58 13 -155 57 -206 96 -18 13 -47
46 -66 74 -18 27 -35 46 -38 43 -3 -3 -9 0 -14 7 -4 8 -3 10 4 5 17 -10 15 2
-11 64 l-22 55 0 1310 c0 1199 2 1313 17 1340 23 43 159 170 208 195 54 28 92
20 128 -28 l27 -35 3 -1374 2 -1373 548 0 c301 0 651 3 778 7 l231 6 2 59 c2
53 0 60 -18 65 -17 4 -21 13 -21 44 0 22 -4 39 -10 39 -5 0 -10 9 -10 20 0 11
-4 20 -10 20 -5 0 -9 8 -8 18 5 58 -3 102 -18 102 -8 0 -12 5 -9 10 3 6 1 10
-4 10 -6 0 -11 7 -11 16 0 9 -5 12 -12 8 -6 -4 -8 -3 -4 4 3 6 -2 15 -11 21
-10 6 -14 11 -9 11 5 0 -1 12 -15 27 -15 18 -17 22 -4 11 11 -9 63 -68 115
-131 52 -63 133 -145 179 -183 46 -38 109 -91 139 -119 l55 -50 156 -7 c86 -3
456 -7 824 -7 l668 -1 -3 1243 c-2 973 -6 1247 -15 1259 -7 8 -10 18 -6 21 3
4 1 7 -5 7 -8 0 -12 21 -11 66 1 47 4 62 11 50 5 -9 7 -25 3 -35 -3 -10 -1
-29 4 -42 7 -18 10 -5 10 57 1 45 4 96 8 114 4 24 3 31 -5 26 -7 -4 -12 -2
-12 3 0 6 6 11 13 11 8 0 12 12 12 35 -1 19 2 32 7 29 4 -3 8 -11 8 -19 0 -8
12 -1 29 16 16 16 37 29 47 29 10 0 47 -31 83 -68z m-207 -84 c-10 -22 -11
-21 -11 12 -1 26 2 31 11 22 8 -8 8 -17 0 -34z m-29 -183 c4 3 5 2 2 -2 -3 -3
0 -12 6 -20 24 -28 1 -11 -32 24 -18 21 -22 28 -8 15 14 -12 29 -20 32 -17z
m-4743 -355 c0 -33 -3 -40 -20 -40 -13 0 -20 -7 -20 -20 0 -17 -7 -20 -40 -20
-33 0 -40 3 -40 20 0 13 -7 20 -20 20 -17 0 -20 7 -20 40 l0 40 80 0 80 0 0
-40z m800 -420 c0 -13 -7 -20 -20 -20 -13 0 -20 7 -20 20 0 13 7 20 20 20 13
0 20 -7 20 -20z m0 -140 c0 -33 -3 -40 -20 -40 -17 0 -20 7 -20 40 0 33 3 40
20 40 17 0 20 -7 20 -40z m-960 -220 c0 -17 -7 -20 -40 -20 -33 0 -40 3 -40
20 0 17 7 20 40 20 33 0 40 -3 40 -20z m-640 -161 c0 -6 -4 -7 -10 -4 -5 3
-10 11 -10 16 0 6 5 7 10 4 6 -3 10 -11 10 -16z m760 -239 c0 -13 7 -20 20
-20 17 0 20 -7 20 -40 l0 -40 -40 0 c-33 0 -40 -3 -40 -20 0 -17 -7 -20 -40
-20 -33 0 -40 3 -40 20 0 13 -7 20 -20 20 -18 0 -20 7 -20 60 l0 60 80 0 c73
0 80 -2 80 -20z m-560 -360 c0 -5 -2 -10 -4 -10 -3 0 -8 5 -11 10 -3 6 -1 10
4 10 6 0 11 -4 11 -10z m40 -60 c0 -11 -2 -20 -4 -20 -2 0 -6 9 -9 20 -3 11
-1 20 4 20 5 0 9 -9 9 -20z m1395 -480 c5 -30 11 -40 26 -40 15 0 19 -7 19
-35 0 -19 -4 -35 -9 -35 -5 0 -23 -3 -40 -6 -31 -6 -31 -6 -31 35 0 34 -3 41
-20 41 -17 0 -20 7 -20 40 0 39 1 40 34 40 32 0 35 -2 41 -40z m65 -170 c0 -5
-5 -10 -11 -10 -5 0 -7 5 -4 10 3 6 8 10 11 10 2 0 4 -4 4 -10z m3 -40 c3 -11
1 -18 -3 -15 -5 3 -11 -1 -13 -7 -3 -7 -6 -1 -6 15 -1 31 14 36 22 7z m245
-258 c2 -7 7 -10 12 -7 4 2 52 -37 106 -89 55 -51 136 -126 181 -167 45 -41
150 -147 235 -237 267 -284 274 -292 258 -302 -23 -15 -30 -12 -30 10 0 17 -7
20 -44 20 -63 0 -106 11 -106 26 0 10 -13 14 -40 14 -33 0 -40 3 -40 20 0 11
-4 20 -10 20 -5 0 -10 7 -10 15 0 8 -4 15 -10 15 -5 0 -10 -7 -10 -15 0 -8 -9
-15 -20 -15 -13 0 -20 7 -20 20 0 17 -7 20 -40 20 -33 0 -40 3 -40 20 0 17 -7
20 -40 20 -33 0 -40 3 -40 20 0 17 -7 20 -40 20 l-40 0 0 40 c0 33 -3 40 -20
40 -13 0 -20 7 -20 20 0 13 -7 20 -20 20 -17 0 -20 7 -20 40 0 33 -3 40 -20
40 -13 0 -20 7 -20 20 0 13 -7 20 -20 20 -13 0 -20 7 -20 20 0 13 -7 20 -20
20 -13 0 -20 7 -20 20 0 13 -7 20 -20 20 -13 0 -20 7 -20 20 0 13 -7 20 -20
20 -13 0 -20 7 -20 20 0 13 -7 20 -20 20 -18 0 -20 7 -20 60 0 33 -4 60 -10
60 -5 0 -10 9 -10 20 0 11 5 20 10 20 6 0 10 -4 10 -10 0 -5 5 -10 10 -10 6 0
10 9 10 19 0 13 8 21 23 23 37 6 61 2 65 -10z m852 -846 c0 -4 11 -21 25 -38
14 -16 25 -37 25 -46 0 -12 3 -13 11 -5 9 9 3 20 -20 45 -17 18 -31 37 -31 41
0 5 25 -20 55 -54 36 -42 54 -71 53 -86 -2 -22 -6 -23 -81 -23 l-78 0 2 112
c1 111 1 111 20 87 10 -13 19 -28 19 -33z m146 -145 c-3 -5 1 -11 9 -15 8 -3
15 -12 15 -21 0 -8 6 -15 14 -15 8 0 17 -4 20 -9 4 -5 -4 -7 -16 -4 -19 5 -21
3 -10 -8 18 -20 15 -29 -13 -29 -29 0 -31 6 -11 26 19 18 10 51 -16 57 -19 6
-17 27 3 27 6 0 8 -4 5 -9z m102 -114 c2 -9 -2 -17 -8 -17 -6 0 -8 5 -4 11 3
6 0 16 -7 21 -12 8 -11 9 1 5 8 -2 16 -11 18 -20z"/>
<path d="M5524 8151 c20 -22 26 -25 26 -13 0 4 -10 13 -22 21 -23 14 -23 14
-4 -8z"/>
<path d="M4641 8108 c-1 -24 -9 -32 -32 -30 -3 1 -6 -6 -6 -14 0 -19 11 -18
31 5 10 11 16 29 13 43 -4 21 -4 20 -6 -4z"/>
<path d="M4660 8109 c0 -5 5 -7 10 -4 6 3 10 8 10 11 0 2 -4 4 -10 4 -5 0 -10
-5 -10 -11z"/>
<path d="M5600 8075 c13 -14 26 -25 28 -25 3 0 -5 11 -18 25 -13 14 -26 25
-28 25 -3 0 5 -11 18 -25z"/>
<path d="M5665 8039 c-4 -6 -5 -12 -2 -15 2 -3 7 2 10 11 7 17 1 20 -8 4z"/>
<path d="M4585 8030 c-4 -6 -11 -8 -16 -5 -5 4 -9 0 -9 -8 0 -14 -37 -51 -55
-55 -5 -1 -10 -7 -10 -13 0 -5 -11 -19 -25 -29 -14 -11 -20 -20 -15 -20 6 0
42 32 80 70 38 39 66 70 63 70 -4 0 -10 -5 -13 -10z"/>
<path d="M7010 7941 c0 -11 6 -22 13 -25 6 -3 2 -3 -10 0 -37 9 -27 -3 20 -25
23 -10 59 -35 80 -55 20 -19 37 -32 37 -28 0 17 -41 72 -53 72 -19 0 -57 43
-57 63 0 9 -7 17 -15 17 -8 0 -15 -9 -15 -19z"/>
<path d="M4410 7864 c0 -14 3 -14 15 -4 8 7 15 14 15 16 0 2 -7 4 -15 4 -8 0
-15 -7 -15 -16z"/>
<path d="M6282 7740 c0 -19 2 -27 5 -17 2 9 2 25 0 35 -3 9 -5 1 -5 -18z"/>
<path d="M3969 7443 c-13 -16 -12 -17 4 -4 9 7 17 15 17 17 0 8 -8 3 -21 -13z"/>
<path d="M3854 7342 c3 -6 -3 -13 -14 -17 -11 -3 -20 -11 -20 -16 0 -6 7 -6
19 1 27 14 34 27 20 36 -7 4 -9 3 -5 -4z"/>
<path d="M3760 7255 c0 -8 -6 -15 -13 -15 -8 0 -19 -12 -26 -26 -7 -16 -17
-24 -26 -21 -9 4 -13 -1 -12 -14 1 -16 10 -11 49 28 26 25 45 50 42 55 -8 12
-14 10 -14 -7z"/>
<path d="M7650 7180 c0 -5 5 -10 11 -10 5 0 7 5 4 10 -3 6 -8 10 -11 10 -2 0
-4 -4 -4 -10z"/>
<path d="M7690 7147 c0 -10 8 -17 18 -17 9 0 13 4 7 8 -5 4 -13 11 -17 16 -5
5 -8 2 -8 -7z"/>
<path d="M7730 7111 c0 -6 4 -12 8 -15 5 -3 9 1 9 9 0 8 -4 15 -9 15 -4 0 -8
-4 -8 -9z"/>
<path d="M3521 7024 c0 -11 3 -14 6 -6 3 7 2 16 -1 19 -3 4 -6 -2 -5 -13z"/>
<path d="M7833 7025 c-10 -10 -9 -16 2 -25 10 -8 15 -9 15 -2 0 6 7 9 15 6 10
-4 15 0 15 15 0 24 -28 28 -47 6z"/>
<path d="M3416 6947 c3 -10 9 -15 12 -12 3 3 0 11 -7 18 -10 9 -11 8 -5 -6z"/>
<path d="M7890 6951 c0 -6 4 -12 8 -15 5 -3 9 1 9 9 0 8 -4 15 -9 15 -4 0 -8
-4 -8 -9z"/>
<path d="M3400 6931 c0 -6 4 -13 10 -16 6 -3 7 1 4 9 -7 18 -14 21 -14 7z"/>
<path d="M3383 6908 c1 -7 -4 -12 -11 -10 -8 1 -11 -2 -6 -9 5 -9 0 -10 -15
-6 -19 4 -20 3 -10 -9 10 -13 15 -12 35 7 13 12 21 26 18 30 -8 13 -14 11 -11
-3z"/>
<path d="M8050 6791 c0 -6 4 -13 10 -16 6 -3 7 1 4 9 -7 18 -14 21 -14 7z"/>
<path d="M2475 6030 c-3 -5 -1 -10 4 -10 6 0 11 5 11 10 0 6 -2 10 -4 10 -3 0
-8 -4 -11 -10z"/>
<path d="M2430 5980 c-9 -6 -10 -10 -3 -10 6 0 15 5 18 10 8 12 4 12 -15 0z"/>
<path d="M2374 5912 c-10 -7 -27 -42 -20 -42 2 0 11 11 20 25 17 26 17 29 0
17z"/>
<path d="M8456 6386 c3 -8 12 -12 21 -9 12 5 12 7 1 14 -20 13 -28 11 -22 -5z"/>
<path d="M8496 6347 c3 -10 9 -15 12 -12 3 3 0 11 -7 18 -10 9 -11 8 -5 -6z"/>
<path d="M4968 2983 c6 -2 18 -2 25 0 6 3 1 5 -13 5 -14 0 -19 -2 -12 -5z"/>
<path d="M3894 1942 c3 -5 0 -13 -6 -15 -8 -3 -6 -6 5 -6 19 -1 23 14 5 25 -6
4 -8 3 -4 -4z"/>
<path d="M3933 1893 c-7 -2 -13 -9 -13 -15 0 -7 5 -7 13 1 8 6 18 7 22 3 5 -4
5 -1 1 6 -4 6 -8 12 -9 11 -1 0 -8 -3 -14 -6z"/>
<path d="M8952 6200 c0 -14 2 -19 5 -12 2 6 2 18 0 25 -3 6 -5 1 -5 -13z"/>
<path d="M1666 3189 c14 -28 28 -49 31 -46 9 9 -31 97 -44 97 -7 0 -2 -20 13
-51z"/>
<path d="M1705 3120 c26 -50 139 -219 143 -215 3 2 -1 11 -8 20 -7 8 -9 15 -6
15 4 0 0 7 -8 16 -9 8 -16 21 -16 29 0 7 -11 23 -25 36 -16 16 -25 35 -25 57
0 24 -4 32 -18 32 -10 0 -24 6 -31 13 -11 10 -12 9 -6 -3z"/>
<path d="M1857 2896 c-3 -8 0 -19 7 -25 8 -7 12 -5 13 9 2 24 -13 35 -20 16z"/>
<path d="M1907 2813 c8 -12 16 -23 18 -23 1 0 0 11 -2 23 -3 13 -11 24 -18 24
-10 0 -10 -5 2 -24z"/>
<path d="M1940 2787 c0 -25 182 -254 212 -265 19 -8 6 11 -32 45 -25 23 -40
46 -40 61 0 13 -4 21 -9 18 -4 -3 -23 15 -40 39 -18 25 -37 45 -43 45 -5 0 -8
6 -5 14 3 8 -2 16 -15 19 -11 3 -17 10 -14 16 4 5 2 12 -4 16 -5 3 -10 0 -10
-8z"/>
<path d="M2200 2466 c0 -2 6 -9 13 -15 10 -8 14 -7 14 4 0 8 -6 15 -14 15 -7
0 -13 -2 -13 -4z"/>
<path d="M2240 2420 c0 -5 5 -10 11 -10 5 0 7 5 4 10 -3 6 -8 10 -11 10 -2 0
-4 -4 -4 -10z"/>
<path d="M2325 2350 c-4 -6 -4 -14 0 -18 3 -3 10 0 15 8 8 12 10 11 10 -5 0
-12 32 -53 78 -98 76 -75 92 -87 92 -67 0 6 -6 10 -14 10 -14 0 -32 36 -28 54
2 5 -5 6 -14 2 -22 -8 -44 11 -37 32 4 13 3 14 -5 3 -8 -11 -11 -11 -18 0 -5
8 -9 19 -9 24 0 6 -5 10 -12 10 -17 0 -29 15 -12 16 8 1 17 1 22 0 4 0 7 6 7
14 0 8 -6 15 -12 15 -7 0 -23 3 -34 6 -12 3 -25 1 -29 -6z"/>
<path d="M2530 2300 c0 -11 7 -20 15 -20 8 0 15 9 15 20 0 11 -7 20 -15 20 -8
0 -15 -9 -15 -20z"/>
<path d="M2532 2151 c2 -7 7 -12 11 -12 12 1 9 15 -3 20 -7 2 -11 -2 -8 -8z"/>
<path d="M2585 2100 c20 -23 29 -21 19 4 -3 9 -13 16 -22 16 -13 0 -12 -3 3
-20z"/>
<path d="M2650 2080 c0 -5 9 -8 20 -7 21 1 18 10 -5 13 -8 1 -15 -2 -15 -6z"/>
<path d="M2620 2076 c0 -2 7 -9 15 -16 13 -11 14 -10 9 4 -5 14 -24 23 -24 12z"/>
<path d="M2662 2051 c2 -8 24 -30 48 -50 37 -31 41 -32 25 -9 -11 14 -22 24
-24 22 -2 -2 -15 9 -28 24 -14 15 -23 21 -21 13z"/>
<path d="M2785 1950 c-3 -5 -1 -10 4 -10 6 0 11 5 11 10 0 6 -2 10 -4 10 -3 0
-8 -4 -11 -10z"/>
<path d="M2846 1898 c44 -33 53 -36 19 -6 -16 15 -34 28 -39 28 -5 0 4 -10 20
-22z"/>
<path d="M2945 1830 c3 -5 11 -10 16 -10 6 0 7 5 4 10 -3 6 -11 10 -16 10 -6
0 -7 -4 -4 -10z"/>
<path d="M2986 1812 c-3 -6 -1 -14 5 -17 14 -9 20 -2 10 14 -6 8 -11 9 -15 3z"/>
<path d="M4408 1243 c6 -2 18 -2 25 0 6 3 1 5 -13 5 -14 0 -19 -2 -12 -5z"/>
</g>
</svg>
